<?xml version="1.0" encoding="UTF-8" standalone="no"?>
<!-- Page 1 -->

<svg
   xmlns:dc="http://purl.org/dc/elements/1.1/"
   xmlns:cc="http://creativecommons.org/ns#"
   xmlns:rdf="http://www.w3.org/1999/02/22-rdf-syntax-ns#"
   xmlns:svg="http://www.w3.org/2000/svg"
   xmlns="http://www.w3.org/2000/svg"
   xmlns:sodipodi="http://sodipodi.sourceforge.net/DTD/sodipodi-0.dtd"
   xmlns:inkscape="http://www.inkscape.org/namespaces/inkscape"
   x="0"
   y="0"
   width="527"
   height="257"
   viewBox="0 0 527 257"
   version="1.1"
   style="display: block;margin-left: auto;margin-right: auto;"
   id="svg2"
   inkscape:version="0.91 r13725"
   sodipodi:docname="reup.svg">
  <metadata
     id="metadata25">
    <rdf:RDF>
      <cc:Work
         rdf:about="">
        <dc:format>image/svg+xml</dc:format>
        <dc:type
           rdf:resource="http://purl.org/dc/dcmitype/StillImage" />
      </cc:Work>
    </rdf:RDF>
  </metadata>
  <sodipodi:namedview
     pagecolor="#ffffff"
     bordercolor="#666666"
     borderopacity="1"
     objecttolerance="10"
     gridtolerance="10"
     guidetolerance="10"
     inkscape:pageopacity="0"
     inkscape:pageshadow="2"
     inkscape:window-width="1440"
     inkscape:window-height="897"
     id="namedview23"
     showgrid="false"
     inkscape:zoom="0.60341556"
     inkscape:cx="263.5"
     inkscape:cy="128.5"
     inkscape:window-x="-8"
     inkscape:window-y="-8"
     inkscape:window-maximized="1"
     inkscape:current-layer="svg2" />
  <defs
     id="defs4">
    <clipPath
       id="c0_1">
      <path
         d="M0.5,257.5l0,-257l527,0l0,257Z"
         id="path7" />
    </clipPath>
    <style
       type="text/css"
       id="style9"><![CDATA[

.g2_1{
fill: #26AAE1;
}
.g1_1{
fill: #1275BC;
}


]]></style>
  </defs>
  <path
     d="M1.2,145.5C1.2,128.6,0.9,114.1,0,100.8l22.8,0l1.1,28.4l0.9,0C31.3,110,47.3,97.9,64.7,97.9c2.7,0,4.8,0.3,7.1,0.6l0,24.5c-2.6,-0.6,-5.3,-0.6,-8.8,-0.6c-18.4,0,-31.4,13.6,-34.9,33.1c-0.6,3.6,-0.9,8,-0.9,12.1l0,76.3l-26,0Z"
     class="g1_1"
     id="path13" />
  <path
     d="M177.5,158.5c0.2,-16.3,-6.8,-42,-36.1,-42c-26.6,0,-37.8,23.9,-39.9,42Zm-76.3,18.6c0.6,35.2,22.8,49.6,49.1,49.6c18.6,0,30.1,-3.2,39.6,-7.3l4.7,18.6c-9.2,4.1,-25.1,9.1,-47.9,9.1c-44,0,-70.3,-29.2,-70.3,-72.4c0,-43.1,25.4,-76.8,67.1,-76.8c47,0,59.1,40.8,59.1,67.1c0,5.3,-0.3,9.1,-0.9,12.1Z"
     class="g1_1"
     id="path15" />
  <g
     clip-path="url(#c0_1)"
     id="g17">
    <path
       d="M248.2,0l0,118.2c0,44.4,19.8,63.3,46.4,63.3c29.3,0,48.5,-19.5,48.5,-63.3L343.1,0l26,0l0,116.5c0,61.1,-32.2,86,-75.4,86c-40.8,0,-71.5,-23.1,-71.5,-85.2L222.2,0Z"
       class="g2_1"
       id="path19" />
    <path
       d="M417.5,141c0,3.8,0.3,7.4,1.2,10.6c4.8,18.1,20.4,30.5,39,30.5c27.5,0,43.5,-22.5,43.5,-55.3c0,-28.4,-15.1,-52.9,-42.6,-52.9c-17.7,0,-34.6,12.4,-39.3,31.9c-0.9,3.3,-1.8,7.1,-1.8,10.4ZM391.8,102.9c0,-18.4,-0.6,-33.1,-1.2,-46.7l23.1,0l1.5,24.5l0.6,0C426.1,63.3,443.3,53.2,466.6,53.2c34.9,0,60.9,29.3,60.9,72.4c0,51.5,-31.6,76.9,-65.3,76.9c-18.9,0,-35.5,-8.3,-44.1,-22.5l-0.6,0l0,77.7l-25.7,0Z"
       class="g2_1"
       id="path21" />
  </g>
</svg>
